<svg width="400" height="80" viewBox="0 0 400 80" fill="none" xmlns="http://www.w3.org/2000/svg">
<rect width="400" height="80" fill="#4285F4"/>
<rect width="74.2857" height="80" fill="white"/>
<path fill-rule="evenodd" clip-rule="evenodd" d="M46.4458 40.2638C46.4458 39.4403 46.3804 38.6485 46.2588 37.8884H36.5715V42.3805H42.1071C41.8687 43.8321 41.144 45.062 40.0547 45.8855V48.7993H43.3788C45.3237 46.7776 46.4458 43.8005 46.4458 40.2638Z" fill="#4285F4"/>
<path fill-rule="evenodd" clip-rule="evenodd" d="M36.5711 51.6128C39.3482 51.6128 41.6765 50.5729 43.3784 48.7993L40.0542 45.8855C39.1332 46.5823 37.955 46.994 36.5711 46.994C33.8921 46.994 31.6246 44.9512 30.8158 42.2063H27.3794V45.2151C29.0719 49.0104 32.5503 51.6128 36.5711 51.6128Z" fill="#34A853"/>
<path fill-rule="evenodd" clip-rule="evenodd" d="M30.816 42.2066C30.6103 41.5098 30.4934 40.7656 30.4934 40.0002C30.4934 39.2348 30.6103 38.4905 30.816 37.7937V34.7849H27.3797C26.683 36.3527 26.2856 38.1263 26.2856 40.0002C26.2856 41.8741 26.683 43.6477 27.3797 45.2154L30.816 42.2066Z" fill="#FBBC05"/>
<path fill-rule="evenodd" clip-rule="evenodd" d="M36.5711 33.006C38.0812 33.006 39.4371 33.5919 40.503 34.7426L43.4532 31.4118C41.6719 29.5379 39.3436 28.3872 36.5711 28.3872C32.5503 28.3872 29.0719 30.9896 27.3794 34.7849L30.8158 37.7937C31.6246 35.0488 33.8921 33.006 36.5711 33.006Z" fill="#EA4335"/>
<path d="M125.295 45.2139C125.116 47.11 124.416 48.5911 123.196 49.6572C121.975 50.7152 120.351 51.2441 118.325 51.2441C116.909 51.2441 115.66 50.9105 114.578 50.2432C113.503 49.5677 112.673 48.6115 112.087 47.3745C111.501 46.1375 111.196 44.7012 111.172 43.0654V41.4053C111.172 39.7288 111.469 38.2518 112.063 36.9741C112.657 35.6965 113.507 34.7118 114.614 34.02C115.729 33.3283 117.015 32.9824 118.472 32.9824C120.433 32.9824 122.012 33.5155 123.208 34.5815C124.404 35.6476 125.1 37.1532 125.295 39.0981H122.219C122.073 37.8205 121.698 36.9009 121.096 36.3394C120.502 35.7697 119.627 35.4849 118.472 35.4849C117.129 35.4849 116.095 35.9772 115.371 36.9619C114.655 37.9385 114.289 39.3748 114.272 41.271V42.8457C114.272 44.7663 114.614 46.2311 115.298 47.2402C115.99 48.2493 116.999 48.7539 118.325 48.7539C119.538 48.7539 120.449 48.4813 121.059 47.936C121.67 47.3908 122.056 46.4834 122.219 45.2139H125.295ZM127.224 44.2739C127.224 42.98 127.48 41.8162 127.993 40.7827C128.506 39.741 129.226 38.9435 130.154 38.3901C131.081 37.8286 132.148 37.5479 133.352 37.5479C135.134 37.5479 136.579 38.1216 137.685 39.269C138.8 40.4165 139.403 41.9383 139.492 43.8345L139.504 44.5303C139.504 45.8324 139.252 46.9961 138.747 48.0215C138.251 49.0469 137.535 49.8403 136.599 50.4019C135.671 50.9634 134.597 51.2441 133.376 51.2441C131.513 51.2441 130.019 50.6257 128.896 49.3887C127.781 48.1436 127.224 46.4875 127.224 44.4204V44.2739ZM130.19 44.5303C130.19 45.8893 130.471 46.9554 131.033 47.7285C131.594 48.4935 132.375 48.876 133.376 48.876C134.377 48.876 135.155 48.4854 135.708 47.7041C136.269 46.9229 136.55 45.7795 136.55 44.2739C136.55 42.9393 136.261 41.8813 135.684 41.1001C135.114 40.3188 134.337 39.9282 133.352 39.9282C132.384 39.9282 131.615 40.3148 131.045 41.0879C130.475 41.8529 130.19 43.0003 130.19 44.5303ZM144.766 37.792L144.851 39.3179C145.828 38.1379 147.109 37.5479 148.696 37.5479C151.447 37.5479 152.847 39.1226 152.895 42.272V51H149.929V42.4429C149.929 41.6047 149.746 40.9862 149.38 40.5874C149.022 40.1805 148.432 39.9771 147.61 39.9771C146.413 39.9771 145.522 40.5182 144.936 41.6006V51H141.97V37.792H144.766ZM159.646 34.5815V37.792H161.977V39.9893H159.646V47.3623C159.646 47.8669 159.744 48.2331 159.939 48.4609C160.142 48.6807 160.5 48.7905 161.013 48.7905C161.355 48.7905 161.701 48.7498 162.051 48.6685V50.9634C161.375 51.1506 160.724 51.2441 160.098 51.2441C157.819 51.2441 156.68 49.9868 156.68 47.4722V39.9893H154.507V37.792H156.68V34.5815H159.646ZM167.41 51H164.443V37.792H167.41V51ZM164.26 34.3618C164.26 33.9061 164.403 33.5277 164.687 33.2266C164.98 32.9255 165.395 32.7749 165.933 32.7749C166.47 32.7749 166.885 32.9255 167.178 33.2266C167.471 33.5277 167.617 33.9061 167.617 34.3618C167.617 34.8094 167.471 35.1838 167.178 35.4849C166.885 35.7778 166.47 35.9243 165.933 35.9243C165.395 35.9243 164.98 35.7778 164.687 35.4849C164.403 35.1838 164.26 34.8094 164.26 34.3618ZM173.403 37.792L173.489 39.3179C174.465 38.1379 175.747 37.5479 177.334 37.5479C180.085 37.5479 181.484 39.1226 181.533 42.272V51H178.567V42.4429C178.567 41.6047 178.384 40.9862 178.018 40.5874C177.659 40.1805 177.069 39.9771 176.247 39.9771C175.051 39.9771 174.16 40.5182 173.574 41.6006V51H170.608V37.792H173.403ZM192.568 49.7061C191.698 50.7314 190.461 51.2441 188.857 51.2441C187.425 51.2441 186.339 50.825 185.598 49.9868C184.866 49.1486 184.499 47.936 184.499 46.3491V37.792H187.466V46.3125C187.466 47.9889 188.162 48.8271 189.553 48.8271C190.994 48.8271 191.966 48.3104 192.471 47.2769V37.792H195.437V51H192.642L192.568 49.7061ZM204.275 51.2441C202.395 51.2441 200.869 50.6541 199.697 49.4741C198.533 48.286 197.952 46.7072 197.952 44.7378V44.3716C197.952 43.0532 198.204 41.8773 198.708 40.8438C199.221 39.8021 199.937 38.9924 200.857 38.4146C201.776 37.8368 202.802 37.5479 203.933 37.5479C205.732 37.5479 207.119 38.1216 208.096 39.269C209.08 40.4165 209.573 42.04 209.573 44.1396V45.3359H200.942C201.032 46.4264 201.394 47.2891 202.029 47.9238C202.672 48.5586 203.477 48.876 204.446 48.876C205.805 48.876 206.912 48.3267 207.766 47.228L209.365 48.7539C208.836 49.5433 208.128 50.1577 207.241 50.5972C206.362 51.0285 205.373 51.2441 204.275 51.2441ZM203.921 39.9282C203.107 39.9282 202.448 40.2131 201.943 40.7827C201.447 41.3524 201.129 42.1458 200.991 43.1631H206.643V42.9434C206.578 41.9505 206.313 41.2018 205.85 40.6973C205.386 40.1846 204.743 39.9282 203.921 39.9282ZM229.714 46.9106L231.814 37.792H234.707L231.106 51H228.664L225.832 41.9302L223.049 51H220.608L216.995 37.792H219.888L222.024 46.813L224.734 37.792H226.968L229.714 46.9106ZM239.846 51H236.88V37.792H239.846V51ZM236.697 34.3618C236.697 33.9061 236.839 33.5277 237.124 33.2266C237.417 32.9255 237.832 32.7749 238.369 32.7749C238.906 32.7749 239.321 32.9255 239.614 33.2266C239.907 33.5277 240.054 33.9061 240.054 34.3618C240.054 34.8094 239.907 35.1838 239.614 35.4849C239.321 35.7778 238.906 35.9243 238.369 35.9243C237.832 35.9243 237.417 35.7778 237.124 35.4849C236.839 35.1838 236.697 34.8094 236.697 34.3618ZM246.804 34.5815V37.792H249.136V39.9893H246.804V47.3623C246.804 47.8669 246.902 48.2331 247.097 48.4609C247.301 48.6807 247.659 48.7905 248.171 48.7905C248.513 48.7905 248.859 48.7498 249.209 48.6685V50.9634C248.533 51.1506 247.882 51.2441 247.256 51.2441C244.977 51.2441 243.838 49.9868 243.838 47.4722V39.9893H241.665V37.792H243.838V34.5815H246.804ZM254.336 39.2324C255.304 38.1094 256.529 37.5479 258.01 37.5479C260.826 37.5479 262.254 39.1551 262.295 42.3696V51H259.329V42.4795C259.329 41.568 259.129 40.9251 258.73 40.5508C258.34 40.1683 257.762 39.9771 256.997 39.9771C255.809 39.9771 254.922 40.506 254.336 41.564V51H251.37V32.25H254.336V39.2324ZM285.439 48.6929C284.796 49.5311 283.905 50.1659 282.766 50.5972C281.627 51.0285 280.333 51.2441 278.884 51.2441C277.395 51.2441 276.077 50.9064 274.929 50.231C273.782 49.5555 272.895 48.5911 272.268 47.3379C271.65 46.0765 271.328 44.6076 271.304 42.9312V41.5396C271.304 38.854 271.947 36.7585 273.232 35.2529C274.518 33.7393 276.313 32.9824 278.616 32.9824C280.593 32.9824 282.164 33.4707 283.328 34.4473C284.491 35.4238 285.191 36.8317 285.427 38.6709H282.4C282.058 36.5306 280.817 35.4604 278.677 35.4604C277.293 35.4604 276.239 35.9609 275.515 36.9619C274.799 37.9548 274.429 39.4155 274.404 41.3442V42.7114C274.404 44.632 274.807 46.1253 275.613 47.1914C276.427 48.2493 277.554 48.7783 278.994 48.7783C280.573 48.7783 281.696 48.4202 282.363 47.7041V44.2251H278.701V41.8813H285.439V48.6929ZM287.991 44.2739C287.991 42.98 288.247 41.8162 288.76 40.7827C289.272 39.741 289.993 38.9435 290.92 38.3901C291.848 37.8286 292.914 37.5479 294.119 37.5479C295.901 37.5479 297.345 38.1216 298.452 39.269C299.567 40.4165 300.169 41.9383 300.259 43.8345L300.271 44.5303C300.271 45.8324 300.019 46.9961 299.514 48.0215C299.018 49.0469 298.302 49.8403 297.366 50.4019C296.438 50.9634 295.364 51.2441 294.143 51.2441C292.279 51.2441 290.786 50.6257 289.663 49.3887C288.548 48.1436 287.991 46.4875 287.991 44.4204V44.2739ZM290.957 44.5303C290.957 45.8893 291.238 46.9554 291.799 47.7285C292.361 48.4935 293.142 48.876 294.143 48.876C295.144 48.876 295.921 48.4854 296.475 47.7041C297.036 46.9229 297.317 45.7795 297.317 44.2739C297.317 42.9393 297.028 41.8813 296.45 41.1001C295.88 40.3188 295.103 39.9282 294.119 39.9282C293.15 39.9282 292.381 40.3148 291.811 41.0879C291.242 41.8529 290.957 43.0003 290.957 44.5303ZM302.224 44.2739C302.224 42.98 302.48 41.8162 302.993 40.7827C303.506 39.741 304.226 38.9435 305.154 38.3901C306.081 37.8286 307.148 37.5479 308.352 37.5479C310.134 37.5479 311.579 38.1216 312.685 39.269C313.8 40.4165 314.403 41.9383 314.492 43.8345L314.504 44.5303C314.504 45.8324 314.252 46.9961 313.747 48.0215C313.251 49.0469 312.535 49.8403 311.599 50.4019C310.671 50.9634 309.597 51.2441 308.376 51.2441C306.513 51.2441 305.019 50.6257 303.896 49.3887C302.781 48.1436 302.224 46.4875 302.224 44.4204V44.2739ZM305.19 44.5303C305.19 45.8893 305.471 46.9554 306.033 47.7285C306.594 48.4935 307.375 48.876 308.376 48.876C309.377 48.876 310.155 48.4854 310.708 47.7041C311.269 46.9229 311.55 45.7795 311.55 44.2739C311.55 42.9393 311.261 41.8813 310.684 41.1001C310.114 40.3188 309.337 39.9282 308.352 39.9282C307.384 39.9282 306.615 40.3148 306.045 41.0879C305.475 41.8529 305.19 43.0003 305.19 44.5303ZM316.494 44.2983C316.494 42.2476 316.974 40.6118 317.934 39.3911C318.903 38.1623 320.185 37.5479 321.78 37.5479C323.285 37.5479 324.469 38.0728 325.332 39.1226L325.466 37.792H328.14V50.5972C328.14 52.3306 327.598 53.6978 326.516 54.6987C325.442 55.6997 323.989 56.2002 322.158 56.2002C321.19 56.2002 320.242 55.9967 319.314 55.5898C318.394 55.1911 317.694 54.6662 317.214 54.0151L318.618 52.2329C319.53 53.3153 320.653 53.8564 321.987 53.8564C322.972 53.8564 323.749 53.5879 324.319 53.0508C324.888 52.5218 325.173 51.7406 325.173 50.707V49.8159C324.319 50.7681 323.179 51.2441 321.755 51.2441C320.209 51.2441 318.944 50.6297 317.959 49.4009C316.982 48.172 316.494 46.4712 316.494 44.2983ZM319.448 44.5547C319.448 45.8812 319.717 46.9269 320.254 47.6919C320.799 48.4487 321.552 48.8271 322.512 48.8271C323.708 48.8271 324.595 48.3145 325.173 47.2891V41.4785C324.612 40.4775 323.733 39.9771 322.537 39.9771C321.56 39.9771 320.799 40.3636 320.254 41.1367C319.717 41.9098 319.448 43.0492 319.448 44.5547ZM334.353 51H331.387V32.25H334.353V51ZM343.411 51.2441C341.531 51.2441 340.005 50.6541 338.833 49.4741C337.669 48.286 337.087 46.7072 337.087 44.7378V44.3716C337.087 43.0532 337.34 41.8773 337.844 40.8438C338.357 39.8021 339.073 38.9924 339.993 38.4146C340.912 37.8368 341.938 37.5479 343.069 37.5479C344.867 37.5479 346.255 38.1216 347.231 39.269C348.216 40.4165 348.708 42.04 348.708 44.1396V45.3359H340.078C340.168 46.4264 340.53 47.2891 341.164 47.9238C341.807 48.5586 342.613 48.876 343.581 48.876C344.941 48.876 346.047 48.3267 346.902 47.228L348.501 48.7539C347.972 49.5433 347.264 50.1577 346.377 50.5972C345.498 51.0285 344.509 51.2441 343.411 51.2441ZM343.057 39.9282C342.243 39.9282 341.584 40.2131 341.079 40.7827C340.583 41.3524 340.265 42.1458 340.127 43.1631H345.779V42.9434C345.714 41.9505 345.449 41.2018 344.985 40.6973C344.521 40.1846 343.879 39.9282 343.057 39.9282Z" fill="white"/>
</svg>
