<?xml version="1.0" encoding="iso-8859-1"?>
<!-- Generator: Adobe Illustrator 22.0.1, SVG Export Plug-In . SVG Version: 6.00 Build 0)  -->
<svg xmlns="http://www.w3.org/2000/svg" xmlns:xlink="http://www.w3.org/1999/xlink" version="1.1" id="Layer_1" x="0px" y="0px" viewBox="0 0 64 64" style="enable-background:new 0 0 64 64;" xml:space="preserve" width="512" height="512">
<style type="text/css">
	.st0{fill:#52B8D9;}
	.st1{fill:#63312D;}
	.st2{fill:#82D9FF;}
	.st3{fill:#CAF4FF;}
	.st4{fill:#F8F3F3;}
	.st5{fill:#F9DD9D;}
	.st6{fill:#FFEECF;}
	.st7{fill:#F9A287;}
	.st8{fill:#FFC8BB;}
	.st9{fill:#DB785A;}
	.st10{fill:#D1D1D1;}
	.st11{fill:#BCBCBC;}
	.st12{fill:#EFC36A;}
	.st13{fill:#84DBFF;}
	.st14{fill:#E1DDDD;}
</style>
<g>
	<path class="st5" d="M56.391,30.263c-0.094-1.8-1.71-3.15-3.513-3.15l-8.247,0h-6.455c2.128-3.67,4.829-7.443,5.82-11.59   c0.415-1.736-0.184-3.611-1.678-4.588c-1.982-1.296-4.553-0.673-5.753,1.251l-0.599,0.959c-1.706,2.732-3.947,5.09-6.59,6.931   l-8.203,5.715v25.776l2.967,1.076c2.016,0.731,4.145,1.105,6.29,1.105h12.984l5.862,0c1.803,0,3.419-1.35,3.513-3.15   c0.1-1.92-1.427-3.508-3.325-3.508h1.001c1.803,0,3.419-1.35,3.513-3.15c0.101-1.92-1.427-3.508-3.325-3.508l1.001,0   c1.803,0,3.419-1.35,3.513-3.15c0.101-1.92-1.427-3.509-3.325-3.509h1.223C54.964,33.771,56.492,32.183,56.391,30.263z"/>
	<path class="st6" d="M23.173,27.79l8.203-5.715c2.643-1.841,4.885-4.199,6.59-6.931l0.599-0.959c1.087-1.741,3.292-2.4,5.171-1.552   c-0.301-0.677-0.77-1.275-1.418-1.699c-1.982-1.296-4.553-0.673-5.753,1.251l-0.599,0.959c-1.706,2.732-3.947,5.09-6.59,6.931   l-8.203,5.715v25.776l2,0.725V27.79z"/>
	<polygon class="st12" points="21.173,25.79 21.173,51.567 23.173,52.292 23.173,24.397  "/>
	<path class="st12" d="M60.892,30.442c0-1.839-1.491-3.329-3.329-3.329h-4.496c1.839,0,3.329,1.491,3.329,3.329   c0,1.839-1.491,3.329-3.329,3.329h-0.453h-0.77c1.839,0,3.329,1.491,3.329,3.329s-1.491,3.329-3.329,3.329h-0.453h-0.737   c1.839,0,3.329,1.491,3.329,3.329c0,1.839-1.491,3.329-3.329,3.329h-0.453h-0.737c1.839,0,3.329,1.491,3.329,3.329   c0,1.839-1.491,3.329-3.329,3.329h4.496c1.839,0,3.329-1.491,3.329-3.329c0-1.839-1.491-3.329-3.329-3.329h1.19   c1.839,0,3.329-1.491,3.329-3.329c0-1.839-1.491-3.329-3.329-3.329h1.19c1.839,0,3.329-1.491,3.329-3.329s-1.491-3.329-3.329-3.329   h1.223C59.401,33.771,60.892,32.281,60.892,30.442z"/>
	<path class="st1" d="M53.96,54.248h-4.496c-0.276,0-0.5-0.224-0.5-0.5s0.224-0.5,0.5-0.5c1.561,0,2.83-1.27,2.83-2.83   s-1.27-2.83-2.83-2.83c-0.276,0-0.5-0.224-0.5-0.5s0.224-0.5,0.5-0.5h1.19c1.56,0,2.829-1.269,2.829-2.829s-1.27-2.83-2.829-2.83   c-0.276,0-0.5-0.224-0.5-0.5s0.224-0.5,0.5-0.5h1.189c1.56,0,2.829-1.27,2.829-2.83s-1.27-2.83-2.829-2.83   c-0.276,0-0.5-0.224-0.5-0.5s0.224-0.5,0.5-0.5h1.223c1.56,0,2.829-1.269,2.829-2.829s-1.27-2.83-2.829-2.83   c-0.276,0-0.5-0.224-0.5-0.5s0.224-0.5,0.5-0.5h4.496c2.111,0,3.829,1.718,3.829,3.83c0,1.711-1.129,3.165-2.681,3.653   c0.888,0.702,1.458,1.788,1.458,3.005c0,1.703-1.117,3.15-2.657,3.646c0.893,0.702,1.468,1.791,1.468,3.013   c0,1.703-1.117,3.149-2.658,3.646c0.894,0.702,1.469,1.792,1.469,3.013C57.79,52.53,56.072,54.248,53.96,54.248z M52.042,53.248   h1.918c1.561,0,2.83-1.27,2.83-2.83s-1.27-2.83-2.83-2.83c-0.276,0-0.5-0.224-0.5-0.5s0.224-0.5,0.5-0.5h1.189   c1.561,0,2.83-1.269,2.83-2.829s-1.27-2.83-2.83-2.83c-0.276,0-0.5-0.224-0.5-0.5s0.224-0.5,0.5-0.5h1.19   c1.56,0,2.829-1.27,2.829-2.83s-1.27-2.83-2.829-2.83c-0.276,0-0.5-0.224-0.5-0.5s0.224-0.5,0.5-0.5h1.223   c1.56,0,2.829-1.269,2.829-2.829s-1.27-2.83-2.829-2.83h-1.919c0.769,0.701,1.252,1.71,1.252,2.83c0,1.711-1.129,3.165-2.681,3.653   c0.888,0.702,1.458,1.788,1.458,3.005c0,1.703-1.117,3.15-2.657,3.646c0.893,0.702,1.468,1.791,1.468,3.013   c0,1.703-1.117,3.15-2.657,3.646c0.893,0.702,1.468,1.791,1.468,3.013C53.294,51.538,52.811,52.547,52.042,53.248z"/>
	<path class="st1" d="M53.066,34.271h-4.949v-1h4.949c1.56,0,2.829-1.269,2.829-2.829s-1.27-2.83-2.829-2.83H38.176   c-0.179,0-0.344-0.096-0.434-0.25c-0.089-0.155-0.089-0.346,0.001-0.5c0.446-0.769,0.917-1.543,1.393-2.324   c1.825-2.998,3.712-6.098,4.437-9.406c0.371-1.694-0.518-3.415-2.113-4.092c-1.644-0.699-3.523-0.104-4.47,1.41l-0.6,0.96   c-1.75,2.805-4.014,5.186-6.729,7.077l-8.202,5.714l-0.571-0.82l8.202-5.714c2.603-1.813,4.773-4.097,6.452-6.786l0.6-0.96   c1.207-1.935,3.606-2.693,5.708-1.801c2.038,0.865,3.174,3.063,2.699,5.227c-0.76,3.471-2.691,6.644-4.56,9.712   c-0.316,0.521-0.632,1.039-0.939,1.555h14.017c2.111,0,3.829,1.718,3.829,3.83C56.896,32.553,55.178,34.271,53.066,34.271z"/>
	<path class="st1" d="M51.844,40.93h-4.949v-1h4.949c1.56,0,2.829-1.27,2.829-2.83s-1.27-2.83-2.829-2.83h-4.949v-1h4.949   c2.111,0,3.829,1.718,3.829,3.83S53.955,40.93,51.844,40.93z"/>
	<path class="st1" d="M50.654,47.589h-4.949v-1h4.949c1.56,0,2.829-1.269,2.829-2.829s-1.27-2.83-2.829-2.83h-4.949v-1h4.949   c2.111,0,3.829,1.718,3.829,3.83C54.483,45.871,52.766,47.589,50.654,47.589z"/>
	<path class="st1" d="M49.464,54.248H30.191c-2.052,0-4.07-0.355-5.998-1.054l-3.19-1.157l0.341-0.94l3.19,1.157   c1.819,0.66,3.722,0.995,5.657,0.995h19.272c1.561,0,2.83-1.27,2.83-2.83s-1.27-2.83-2.83-2.83h-4.948v-1h4.948   c2.112,0,3.83,1.718,3.83,3.83S51.576,54.248,49.464,54.248z"/>
	<rect x="9.805" y="25.13" class="st13" width="11.368" height="28.023"/>
	<polygon class="st3" points="11.805,27.13 21.173,27.13 21.173,25.13 9.805,25.13 9.805,53.153 11.805,53.153  "/>
	<path class="st1" d="M21.173,53.653H9.805c-0.276,0-0.5-0.224-0.5-0.5V25.129c0-0.276,0.224-0.5,0.5-0.5h11.368   c0.276,0,0.5,0.224,0.5,0.5v28.023C21.673,53.429,21.45,53.653,21.173,53.653z M10.305,52.653h10.368V25.629H10.305V52.653z"/>
	<rect x="13.953" y="28.715" class="st4" width="3.073" height="3.073"/>
	<rect x="52.34" y="33.271" class="st1" width="4" height="1"/>
	<rect x="52.34" y="39.93" class="st1" width="4" height="1"/>
	<rect x="51.338" y="46.589" class="st1" width="3.566" height="1"/>
	<rect x="3.108" y="26.629" class="st13" width="6.697" height="25.024"/>
	<rect x="3.108" y="26.629" class="st3" width="6.697" height="2"/>
	<path class="st1" d="M9.805,52.153H3.108v-1h6.197V27.129H3.108v-1h6.697c0.276,0,0.5,0.224,0.5,0.5v25.024   C10.305,51.93,10.082,52.153,9.805,52.153z"/>
</g>
</svg>
